
		<svg xmlns="http://www.w3.org/2000/svg" xmlns:xlink="http://www.w3.org/1999/xlink" version="1.1" width="3217.391304347826" height="2782.608695652174">
			
			<g transform="scale(10.869565217391305) translate(10, 10)">
				<defs id="SvgjsDefs5288"><linearGradient id="SvgjsLinearGradient5292"><stop id="SvgjsStop5293" stop-color="#b88746" offset="0"/><stop id="SvgjsStop5294" stop-color="#fdf5a6" offset="1"/></linearGradient><linearGradient id="SvgjsLinearGradient5295"><stop id="SvgjsStop5296" stop-color="#b88746" offset="0"/><stop id="SvgjsStop5297" stop-color="#fdf5a6" offset="1"/></linearGradient></defs><g id="main_text" rel="mainfill" name="main_text" feature="main_text" xmlns:name="mainText_mainfill" groupName="main_text" fill="#fff" transform="translate(-5.916372769219535, 127.83090512648873) scale(3.4397515527950313)"><path d="M1.72 14.02 q0.58 -0.16 1.51 -0.36 t2.41 -0.2 q1.96 0 2.84 1.14 q0.1 -0.08 0.39 -0.27 t0.73 -0.39 t1.03 -0.34 t1.31 -0.14 q1.18 0 1.91 0.35 t1.13 0.98 t0.54 1.51 t0.14 1.92 l0 5.78 l-1.3 0 l0 -5.36 q0 -1.02 -0.09 -1.77 t-0.36 -1.24 t-0.77 -0.74 t-1.3 -0.25 q-0.6 0 -1.09 0.11 t-0.85 0.27 t-0.59 0.32 t-0.33 0.24 q0.18 0.52 0.27 1.17 t0.09 1.37 l0 5.88 l-1.3 0 l0 -5.36 q0 -1.02 -0.09 -1.77 t-0.37 -1.24 t-0.79 -0.74 t-1.35 -0.25 q-0.94 0 -1.59 0.1 t-0.83 0.18 l0 9.08 l-1.3 0 l0 -9.98 z M22.240000000000002 23.06 q0.76 0 1.33 -0.05 t0.97 -0.13 l0 -3.64 q-0.22 -0.1 -0.7 -0.21 t-1.32 -0.11 q-0.48 0 -1 0.07 t-0.96 0.3 t-0.72 0.63 t-0.28 1.06 q0 0.58 0.19 0.98 t0.54 0.64 t0.84 0.35 t1.11 0.11 z M22.12 13.42 q1.02 0 1.73 0.29 t1.15 0.8 t0.64 1.21 t0.2 1.52 l0 6.52 q-0.2 0.06 -0.58 0.13 t-0.88 0.15 t-1.11 0.13 t-1.25 0.05 q-0.82 0 -1.51 -0.18 t-1.2 -0.57 t-0.8 -1 t-0.29 -1.49 q0 -0.84 0.32 -1.44 t0.9 -0.99 t1.38 -0.57 t1.74 -0.18 q0.28 0 0.59 0.03 t0.6 0.08 t0.5 0.1 t0.29 0.09 l0 -0.64 q0 -0.54 -0.08 -1.05 t-0.35 -0.92 t-0.76 -0.66 t-1.29 -0.25 q-1.14 0 -1.7 0.16 t-0.82 0.26 l-0.18 -1.14 q0.34 -0.16 1.05 -0.3 t1.71 -0.14 z M33.44 24.22 q-1.2 0 -2.12 -0.38 t-1.53 -1.09 t-0.93 -1.7 t-0.32 -2.19 q0 -1.22 0.33 -2.22 t0.95 -1.72 t1.5 -1.11 t1.98 -0.39 q0.84 0 1.57 0.14 t1.13 0.36 l-0.34 1.12 q-0.4 -0.2 -0.9 -0.32 t-1.34 -0.12 q-1.72 0 -2.61 1.11 t-0.89 3.15 q0 0.92 0.2 1.69 t0.65 1.32 t1.16 0.86 t1.73 0.31 q0.84 0 1.41 -0.19 t0.83 -0.33 l0.28 1.12 q-0.36 0.2 -1.13 0.39 t-1.61 0.19 z M42.64 24.22 q-1.2 0 -2.12 -0.38 t-1.53 -1.09 t-0.93 -1.7 t-0.32 -2.19 q0 -1.22 0.33 -2.22 t0.95 -1.72 t1.5 -1.11 t1.98 -0.39 q0.84 0 1.57 0.14 t1.13 0.36 l-0.34 1.12 q-0.4 -0.2 -0.9 -0.32 t-1.34 -0.12 q-1.72 0 -2.61 1.11 t-0.89 3.15 q0 0.92 0.2 1.69 t0.65 1.32 t1.16 0.86 t1.73 0.31 q0.84 0 1.41 -0.19 t0.83 -0.33 l0.28 1.12 q-0.36 0.2 -1.13 0.39 t-1.61 0.19 z M47.56 24 l0 -15.28 l1.3 -0.24 l0 5.48 q0.64 -0.24 1.3 -0.37 t1.32 -0.13 q1.2 0 2 0.34 t1.28 0.97 t0.67 1.51 t0.19 1.94 l0 5.78 l-1.3 0 l0 -5.36 q0 -1.1 -0.15 -1.86 t-0.5 -1.24 t-0.93 -0.69 t-1.46 -0.21 q-0.34 0 -0.73 0.06 t-0.73 0.13 t-0.61 0.15 t-0.35 0.12 l0 8.9 l-1.3 0 z M60.24000000000001 24 l-1.3 0 l0 -10.34 l1.3 0 l0 10.34 z M60.540000000000006 10.54 q0 0.46 -0.28 0.73 t-0.68 0.27 t-0.68 -0.27 t-0.28 -0.73 t0.28 -0.73 t0.68 -0.27 t0.68 0.27 t0.28 0.73 z M63.68000000000001 14.02 q0.58 -0.16 1.56 -0.36 t2.4 -0.2 q1.18 0 1.97 0.34 t1.26 0.97 t0.67 1.51 t0.2 1.94 l0 5.78 l-1.3 0 l0 -5.36 q0 -1.1 -0.15 -1.86 t-0.5 -1.24 t-0.92 -0.69 t-1.43 -0.21 q-0.92 0 -1.59 0.1 t-0.87 0.18 l0 9.08 l-1.3 0 l0 -9.98 z M78.32000000000001 23.06 q0.76 0 1.33 -0.05 t0.97 -0.13 l0 -3.64 q-0.22 -0.1 -0.7 -0.21 t-1.32 -0.11 q-0.48 0 -1 0.07 t-0.96 0.3 t-0.72 0.63 t-0.28 1.06 q0 0.58 0.19 0.98 t0.54 0.64 t0.84 0.35 t1.11 0.11 z M78.2 13.42 q1.02 0 1.73 0.29 t1.15 0.8 t0.64 1.21 t0.2 1.52 l0 6.52 q-0.2 0.06 -0.58 0.13 t-0.88 0.15 t-1.11 0.13 t-1.25 0.05 q-0.82 0 -1.51 -0.18 t-1.2 -0.57 t-0.8 -1 t-0.29 -1.49 q0 -0.84 0.32 -1.44 t0.9 -0.99 t1.38 -0.57 t1.74 -0.18 q0.28 0 0.59 0.03 t0.6 0.08 t0.5 0.1 t0.29 0.09 l0 -0.64 q0 -0.54 -0.08 -1.05 t-0.35 -0.92 t-0.76 -0.66 t-1.29 -0.25 q-1.14 0 -1.7 0.16 t-0.82 0.26 l-0.18 -1.14 q0.34 -0.16 1.05 -0.3 t1.71 -0.14 z"/></g><g id="slogan_text" rel="mainfill" name="slogan_text" feature="slogan_text" xmlns:name="sloganText_mainfill" groupName="slogan_text" fill="#fff" transform="translate(66.58383432579471, 227.10110192150708) scale(0.3777280968454175)"><path d="M9.3729 21.6612 c0.18644 0 0.32203 0.13592 0.32203 0.33915 l0 1.678 c0 0.16949 -0.13559 0.32186 -0.32203 0.32186 l-8.0169 0 c-0.16949 0 -0.25424 -0.13543 -0.25424 -0.30508 l0 -12.932 c0 -0.16949 0.13559 -0.32203 0.32203 -0.32203 l1.7627 0 c0.18644 0 0.33898 0.15254 0.33898 0.32203 l0 10.898 l5.8475 0 z M13.982918644067796 10.441 l-1.6778 0 c-0.18644 0 -0.32203 0.15254 -0.32203 0.32203 l0 12.898 c0 0.18644 0.15254 0.33881 0.33898 0.33881 l1.678 0 c0.16933 0 0.32186 -0.16933 0.32186 -0.33881 l0 -12.898 c0 -0.16949 -0.16949 -0.32203 -0.33898 -0.32203 z M28.474966101694914 17.8136 l0 3.8475 c0 0.08458 -0.033898 0.18627 -0.11864 0.25407 c-1.2542 1.3729 -3.0339 2.2032 -5.0678 2.2032 c-3.7288 0 -6.8475 -2.9998 -6.8475 -6.8642 c0 -3.8475 3.1186 -6.9322 6.8475 -6.9322 c2.0508 0 3.8475 0.84746 5.1186 2.2373 c0.15254 0.15254 0.13559 0.32203 -0.016949 0.45763 l-1.4068 1.1356 c-0.16966 0.13559 -0.32203 0.11864 -0.45763 -0.033898 c-0.72881 -0.76271 -1.8644 -1.4575 -3.2203 -1.4575 c-2.4915 0 -4.4405 2.1524 -4.4405 4.5931 c0 2.4746 1.949 4.5254 4.4405 4.5254 c1.1017 0 2.0508 -0.45763 2.7627 -1.0339 l0 -0.9661 l-2.678 0 c-0.22034 0 -0.33898 -0.10169 -0.33898 -0.32186 l0 -1.6271 c0 -0.22034 0.084746 -0.35593 0.30508 -0.35593 l4.7797 0 c0.22034 0 0.33898 0.11881 0.33898 0.33898 z M41.59313559322034 10.441 c0.18644 0 0.33881 0.15254 0.33881 0.32203 l0 12.898 c0 0.20339 -0.13559 0.33881 -0.30525 0.33881 l-1.288 0 c-0.54237 0 -0.84763 -0.37288 -0.84763 -0.86441 l0 -4.5422 l-6.5085 0 l0 5.0678 c0 0.16949 -0.13559 0.33881 -0.32203 0.33881 l-1.7627 0 c-0.18644 0 -0.33898 -0.15238 -0.33898 -0.33881 l0 -12.898 c0 -0.16949 0.13559 -0.32203 0.3222 -0.32203 l1.7627 0 c0.18644 0 0.33898 0.15254 0.33898 0.32203 l0 5.3898 l6.5085 0 l0 -5.3898 c0 -0.16949 0.13559 -0.32203 0.33898 -0.32203 l1.7629 0 z M54.37238983050847 10.441 c0.16949 0 0.32203 0.13592 0.32203 0.32237 l0 1.6949 c0 0.16933 -0.15254 0.32186 -0.32203 0.32186 l-3.8305 0 l0 10.881 c0 0.20339 -0.13559 0.33881 -0.32203 0.33881 l-1.2542 0 c-0.54237 0 -0.84746 -0.37288 -0.84746 -0.86441 l0 -10.356 l-3.8136 0 c-0.16949 0 -0.33898 -0.13559 -0.33898 -0.32203 l0 -1.678 c0 -0.18644 0.15254 -0.33898 0.33898 -0.33898 l10.068 0 z M68.16962711864406 10.441 c0.16949 0 0.33915 0.15254 0.33915 0.32203 l0 12.915 c0 0.16949 -0.13559 0.32186 -0.32203 0.32186 l-0.55932 0 c-0.45763 0 -0.94915 -0.32203 -1.5593 -1 l-6.9322 -7.7456 l0 8.4068 c0 0.16949 -0.15254 0.32203 -0.33915 0.32203 l-1.7288 0.016784 c-0.18644 0 -0.33898 -0.15238 -0.33898 -0.33881 l0 -12.898 c0 -0.16949 0.15254 -0.32203 0.32203 -0.32203 l1 0 c0.18644 0 0.30508 0.067797 0.45763 0.25424 l7.5763 8.678 l0 -8.6102 c0 -0.16949 0.13559 -0.32203 0.32203 -0.32203 l1.7627 0 z M73.13546101694915 10.441 l-1.6778 0 c-0.18644 0 -0.32203 0.15254 -0.32203 0.32203 l0 12.898 c0 0.18644 0.15254 0.33881 0.33898 0.33881 l1.678 0 c0.16933 0 0.32186 -0.16933 0.32186 -0.33881 l0 -12.898 c0 -0.16949 -0.16949 -0.32203 -0.33898 -0.32203 z M87.54250847457627 10.441 c0.16949 0 0.33915 0.15254 0.33915 0.32203 l0 12.915 c0 0.16949 -0.13559 0.32186 -0.32203 0.32186 l-0.55932 0 c-0.45763 0 -0.94915 -0.32203 -1.5593 -1 l-6.9322 -7.7456 l0 8.4068 c0 0.16949 -0.15254 0.32203 -0.33915 0.32203 l-1.7288 0.016784 c-0.18644 0 -0.33898 -0.15238 -0.33898 -0.33881 l0 -12.898 c0 -0.16949 0.15254 -0.32203 0.32203 -0.32203 l1 0 c0.18644 0 0.30508 0.067797 0.45763 0.25424 l7.5763 8.678 l0 -8.6102 c0 -0.16949 0.13559 -0.32203 0.32203 -0.32203 l1.7627 0 z M101.94954237288134 17.8136 l0 3.8475 c0 0.08458 -0.033898 0.18627 -0.11864 0.25407 c-1.2542 1.3729 -3.0339 2.2032 -5.0678 2.2032 c-3.7288 0 -6.8475 -2.9998 -6.8475 -6.8642 c0 -3.8475 3.1186 -6.9322 6.8475 -6.9322 c2.0508 0 3.8475 0.84746 5.1186 2.2373 c0.15254 0.15254 0.13559 0.32203 -0.016949 0.45763 l-1.4068 1.1356 c-0.16966 0.13559 -0.32203 0.11864 -0.45763 -0.033898 c-0.72881 -0.76271 -1.8644 -1.4575 -3.2203 -1.4575 c-2.4915 0 -4.4405 2.1524 -4.4405 4.5931 c0 2.4746 1.949 4.5254 4.4405 4.5254 c1.1017 0 2.0508 -0.45763 2.7627 -1.0339 l0 -0.9661 l-2.678 0 c-0.22034 0 -0.33898 -0.10169 -0.33898 -0.32186 l0 -1.6271 c0 -0.22034 0.084746 -0.35593 0.30508 -0.35593 l4.7797 0 c0.22034 0 0.33898 0.11881 0.33898 0.33898 z  M116.8981220338983 10.441 c0.18661 0 0.33898 0.15254 0.33898 0.32203 l0 1.6949 c0 0.18644 -0.13559 0.32203 -0.33898 0.32203 l-6.0678 0 l0 3.4068 l3.2203 0 c0.18644 0 0.33898 0.15254 0.33898 0.33915 l0 1.6778 c0 0.20339 -0.13559 0.3222 -0.33898 0.3222 l-3.2203 0 l0 5.1356 c0 0.20339 -0.11864 0.33881 -0.30508 0.33881 l-1.2881 0 c-0.52542 0 -0.83051 -0.37288 -0.83051 -0.86441 l0 -12.373 c0 -0.16949 0.13559 -0.32203 0.32203 -0.32203 l8.1695 0 z M131.9147627118644 23.62712 c0.10169 0.20339 0.034229 0.37271 -0.20305 0.37271 l-1.9831 0 c-0.16949 0 -0.27119 -0.08458 -0.33898 -0.22017 l-0.91525 -1.9322 l-6.5256 0 l-0.91525 1.9322 c-0.067797 0.13559 -0.18644 0.22017 -0.33898 0.22017 l-2 0 c-0.20339 0 -0.32203 -0.16933 -0.22034 -0.37271 l6.3898 -13.102 c0.067797 -0.11881 0.15238 -0.16966 0.23712 -0.16966 l0.20339 0 c0.10169 0 0.16949 0.050847 0.23729 0.16966 z M122.9832627118644 19.6441 l4.4576 0 l-2.2203 -4.7288 z M133.50847779661015 21.6442 l0.96576 -1.1188 c0.20339 -0.23746 0.45763 -0.23746 0.64407 -0.10186 c0.55932 0.47458 1.5593 1.3729 2.8136 1.3729 c1.2203 0 2.2712 -0.4578 2.2712 -1.5086 c0 -1.1017 -1.1356 -1.4237 -2.3051 -1.8983 c-2.4237 -1 -4.1864 -2.0339 -4.1864 -4.2373 c0 -1.7288 1.2712 -3.8136 4.339 -3.8136 c2.0847 0 3.5934 1.1866 4.0341 1.6273 c0.18644 0.18644 0.28814 0.42373 0.11864 0.62712 l-0.84746 1.1186 c-0.16966 0.22034 -0.40678 0.32203 -0.67797 0.13559 c-0.54237 -0.42373 -1.4237 -1.2034 -2.6102 -1.2034 c-1.2034 0 -1.9492 0.69492 -1.9492 1.5085 c0 0.89831 0.77966 1.339 2.0508 1.8475 c2.2203 0.93254 4.4407 1.9325 4.4407 4.3224 c0 1.9831 -1.9659 3.7964 -4.6439 3.7964 c-2.4237 0 -3.9322 -1.5422 -4.3559 -1.949 c-0.15254 -0.13559 -0.30508 -0.32203 -0.10169 -0.52542 z M154.5418813559322 10.441 c0.16949 0 0.32203 0.13592 0.32203 0.32237 l0 1.6949 c0 0.16933 -0.15254 0.32186 -0.32203 0.32186 l-3.8305 0 l0 10.881 c0 0.20339 -0.13559 0.33881 -0.32203 0.33881 l-1.2542 0 c-0.54237 0 -0.84746 -0.37288 -0.84746 -0.86441 l0 -10.356 l-3.8136 0 c-0.16949 0 -0.33898 -0.13559 -0.33898 -0.32203 l0 -1.678 c0 -0.18644 0.15254 -0.33898 0.33898 -0.33898 l10.068 0 z  M171.89772881355927 23.61017 c0.13559 0.20339 0.034064 0.38983 -0.23712 0.38983 l-1.5763 0 c-0.47458 0 -0.88136 -0.44068 -1.0339 -0.69492 l-2.339 -3.5763 l-2.8475 0 l0 3.9322 c0 0.20339 -0.13559 0.33881 -0.32203 0.33881 l-1.7966 0 c-0.16949 0 -0.30508 -0.13543 -0.30508 -0.33881 l0 -12.898 c0 -0.16949 0.13559 -0.32203 0.32203 -0.32203 l5.4068 0 c2.7797 0 4.4915 2.5763 4.4915 4.6441 c0 1.6442 -0.98305 3.4576 -2.661 4.2373 z M163.86452881355928 12.78 l0.00033103 4.6102 l2.9659 0 c1.6102 0 2.3898 -1.1695 2.3898 -2.3559 c0 -1.1356 -0.79661 -2.2542 -2.3902 -2.2542 l-2.9659 0 z M182.50846779661012 12.78 l-6.1697 -0.00033103 l0 3.4068 l3.322 0 c0.18644 0 0.33898 0.15254 0.33898 0.33915 l0 1.6778 c0 0.20339 -0.13559 0.3222 -0.33898 0.3222 l-3.322 0 l0 3.1356 l6.1695 0 c0.18644 0 0.33881 0.15238 0.33881 0.33881 l0 1.6613 c0 0.18644 -0.15238 0.33881 -0.33881 0.33881 l-8.2542 0 c-0.18644 0 -0.33898 -0.15238 -0.33898 -0.33881 l0 -12.898 c0 -0.16949 0.13559 -0.32203 0.3222 -0.32203 l8.2712 0 c0.18644 0 0.33881 0.15254 0.33881 0.32203 l0 1.6949 c0 0.18644 -0.15238 0.32203 -0.33881 0.32203 z M198.1012033898305 23.62712 c0.10169 0.20339 0.034229 0.37271 -0.20305 0.37271 l-1.9831 0 c-0.16949 0 -0.27119 -0.08458 -0.33898 -0.22017 l-0.91525 -1.9322 l-6.5256 0 l-0.91525 1.9322 c-0.067797 0.13559 -0.18644 0.22017 -0.33898 0.22017 l-2 0 c-0.20339 0 -0.32203 -0.16933 -0.22034 -0.37271 l6.3898 -13.102 c0.067797 -0.11881 0.15238 -0.16966 0.23712 -0.16966 l0.20339 0 c0.10169 0 0.16949 0.050847 0.23729 0.16966 z M189.1697033898305 19.6441 l4.4576 0 l-2.2203 -4.7288 z M208.20340847457624 21.6612 c0.18644 0 0.32203 0.13592 0.32203 0.33915 l0 1.678 c0 0.16949 -0.13559 0.32186 -0.32203 0.32186 l-8.0169 0 c-0.16949 0 -0.25424 -0.13543 -0.25424 -0.30508 l0 -12.932 c0 -0.16949 0.13559 -0.32203 0.32203 -0.32203 l1.7627 0 c0.18644 0 0.33898 0.15254 0.33898 0.32203 l0 10.898 l5.8475 0 z M215.74562711864405 20.5256 c0 0.18644 -0.13559 0.33898 -0.32203 0.33898 l-4.9492 0 c-0.16949 0 -0.33898 -0.13559 -0.33898 -0.3222 l0 -1.4407 c0 -0.20339 0.15254 -0.33898 0.33898 -0.33898 l4.9492 0 c0.18644 0 0.32203 0.11864 0.32203 0.32203 l0 1.4408 z M227.59272881355932 10.441 c0.16949 0 0.32203 0.13592 0.32203 0.32237 l0 1.6949 c0 0.16933 -0.15254 0.32186 -0.32203 0.32186 l-3.8305 0 l0 10.881 c0 0.20339 -0.13559 0.33881 -0.32203 0.33881 l-1.2542 0 c-0.54237 0 -0.84746 -0.37288 -0.84746 -0.86441 l0 -10.356 l-3.8136 0 c-0.16949 0 -0.33898 -0.13559 -0.33898 -0.32203 l0 -1.678 c0 -0.18644 0.15254 -0.33898 0.33898 -0.33898 l10.068 0 z M232.03376610169488 10.441 l-1.6778 0 c-0.18644 0 -0.32203 0.15254 -0.32203 0.32203 l0 12.898 c0 0.18644 0.15254 0.33881 0.33898 0.33881 l1.678 0 c0.16933 0 0.32186 -0.16933 0.32186 -0.33881 l0 -12.898 c0 -0.16949 -0.16949 -0.32203 -0.33898 -0.32203 z M250.18681355932202 10.441 c0.18644 0 0.33915 0.15238 0.33915 0.32186 l0 12.898 c0 0.16949 -0.13559 0.33881 -0.3222 0.33881 l-1.7456 0 c-0.20339 0 -0.33898 -0.15238 -0.33898 -0.33881 l0 -8.2203 l-4.9492 7.8305 c-0.10186 0.16949 -0.20356 0.23729 -0.3561 0.23729 l-0.10169 0 c-0.15254 0 -0.25424 -0.067797 -0.35593 -0.23729 l-4.9322 -7.8475 l0 8.2375 c0 0.16949 -0.15254 0.33881 -0.33898 0.33881 l-1.7458 0 c-0.18644 0 -0.33898 -0.15238 -0.33898 -0.33881 l0 -12.898 c0 -0.16949 0.13559 -0.32203 0.33898 -0.32203 l1.4576 0 c0.16949 0 0.28814 0.067797 0.38983 0.22034 l5.5763 8.8134 l5.5932 -8.8134 c0.084746 -0.15254 0.20339 -0.22034 0.38983 -0.22034 l1.4407 0 z M261.66101016949153 12.78 l-6.1697 -0.00033103 l0 3.4068 l3.322 0 c0.18644 0 0.33898 0.15254 0.33898 0.33915 l0 1.6778 c0 0.20339 -0.13559 0.3222 -0.33898 0.3222 l-3.322 0 l0 3.1356 l6.1695 0 c0.18644 0 0.33881 0.15238 0.33881 0.33881 l0 1.6613 c0 0.18644 -0.15238 0.33881 -0.33881 0.33881 l-8.2542 0 c-0.18644 0 -0.33898 -0.15238 -0.33898 -0.33881 l0 -12.898 c0 -0.16949 0.13559 -0.32203 0.3222 -0.32203 l8.2712 0 c0.18644 0 0.33881 0.15254 0.33881 0.32203 l0 1.6949 c0 0.18644 -0.15238 0.32203 -0.33881 0.32203 z  M282.0503559322034 23.62712 c0.10169 0.20339 0.034229 0.37271 -0.20305 0.37271 l-1.9831 0 c-0.16949 0 -0.27119 -0.08458 -0.33898 -0.22017 l-0.91525 -1.9322 l-6.5256 0 l-0.91525 1.9322 c-0.067797 0.13559 -0.18644 0.22017 -0.33898 0.22017 l-2 0 c-0.20339 0 -0.32203 -0.16933 -0.22034 -0.37271 l6.3898 -13.102 c0.067797 -0.11881 0.15238 -0.16966 0.23712 -0.16966 l0.20339 0 c0.10169 0 0.16949 0.050847 0.23729 0.16966 z M273.1188559322034 19.6441 l4.4576 0 l-2.2203 -4.7288 z M294.25366101694914 23.61017 c0.13559 0.20339 0.034064 0.38983 -0.23712 0.38983 l-1.5763 0 c-0.47458 0 -0.88136 -0.44068 -1.0339 -0.69492 l-2.339 -3.5763 l-2.8475 0 l0 3.9322 c0 0.20339 -0.13559 0.33881 -0.32203 0.33881 l-1.7966 0 c-0.16949 0 -0.30508 -0.13543 -0.30508 -0.33881 l0 -12.898 c0 -0.16949 0.13559 -0.32203 0.32203 -0.32203 l5.4068 0 c2.7797 0 4.4915 2.5763 4.4915 4.6441 c0 1.6442 -0.98305 3.4576 -2.661 4.2373 z M286.2204610169492 12.78 l0.00033103 4.6102 l2.9659 0 c1.6102 0 2.3898 -1.1695 2.3898 -2.3559 c0 -1.1356 -0.79661 -2.2542 -2.3902 -2.2542 l-2.9659 0 z M303.7119 16.644199999999998 c1.2712 0.74576 2.0847 1.9998 2.0847 3.4744 c0 2.3051 -2.0339 3.8814 -3.9661 3.8814 l-5.5593 0 c-0.18644 0 -0.33898 -0.15238 -0.33898 -0.33881 l0 -12.898 c0 -0.16949 0.13543 -0.32203 0.32203 -0.32203 l4.9831 0 c2.1356 0 3.7966 2.0508 3.7966 3.6271 c0 1.0678 -0.52542 1.9661 -1.322 2.5763 z M300.8136 15.9661 c2.2373 0 2.2542 -3.1864 0 -3.1864 l-2.4576 0 l0 3.1864 l2.4576 0 z M301.2205 21.661 c2.6949 0 2.7288 -3.4237 -0.016949 -3.4237 l-2.8475 0 l0 3.4237 l2.8644 0 z M310.084613559322 10.441 l-1.6778 0 c-0.18644 0 -0.32203 0.15254 -0.32203 0.32203 l0 12.898 c0 0.18644 0.15254 0.33881 0.33898 0.33881 l1.678 0 c0.16933 0 0.32186 -0.16933 0.32186 -0.33881 l0 -12.898 c0 -0.16949 -0.16949 -0.32203 -0.33898 -0.32203 z M322.94866101694913 10.441 c0.16949 0 0.32203 0.13592 0.32203 0.32237 l0 1.6949 c0 0.16933 -0.15254 0.32186 -0.32203 0.32186 l-3.8305 0 l0 10.881 c0 0.20339 -0.13559 0.33881 -0.32203 0.33881 l-1.2542 0 c-0.54237 0 -0.84746 -0.37288 -0.84746 -0.86441 l0 -10.356 l-3.8136 0 c-0.16949 0 -0.33898 -0.13559 -0.33898 -0.32203 l0 -1.678 c0 -0.18644 0.15254 -0.33898 0.33898 -0.33898 l10.068 0 z M335.5078983050847 23.61017 c0.13559 0.20339 0.034064 0.38983 -0.23712 0.38983 l-1.5763 0 c-0.47458 0 -0.88136 -0.44068 -1.0339 -0.69492 l-2.339 -3.5763 l-2.8475 0 l0 3.9322 c0 0.20339 -0.13559 0.33881 -0.32203 0.33881 l-1.7966 0 c-0.16949 0 -0.30508 -0.13543 -0.30508 -0.33881 l0 -12.898 c0 -0.16949 0.13559 -0.32203 0.32203 -0.32203 l5.4068 0 c2.7797 0 4.4915 2.5763 4.4915 4.6441 c0 1.6442 -0.98305 3.4576 -2.661 4.2373 z M327.47469830508476 12.78 l0.00033103 4.6102 l2.9659 0 c1.6102 0 2.3898 -1.1695 2.3898 -2.3559 c0 -1.1356 -0.79661 -2.2542 -2.3902 -2.2542 l-2.9659 0 z M350.42323728813557 23.62712 c0.10169 0.20339 0.034229 0.37271 -0.20305 0.37271 l-1.9831 0 c-0.16949 0 -0.27119 -0.08458 -0.33898 -0.22017 l-0.91525 -1.9322 l-6.5256 0 l-0.91525 1.9322 c-0.067797 0.13559 -0.18644 0.22017 -0.33898 0.22017 l-2 0 c-0.20339 0 -0.32203 -0.16933 -0.22034 -0.37271 l6.3898 -13.102 c0.067797 -0.11881 0.15238 -0.16966 0.23712 -0.16966 l0.20339 0 c0.10169 0 0.16949 0.050847 0.23729 0.16966 z M341.4917372881356 19.6441 l4.4576 0 l-2.2203 -4.7288 z M363.94954237288135 17.8136 l0 3.8475 c0 0.08458 -0.033898 0.18627 -0.11864 0.25407 c-1.2542 1.3729 -3.0339 2.2032 -5.0678 2.2032 c-3.7288 0 -6.8475 -2.9998 -6.8475 -6.8642 c0 -3.8475 3.1186 -6.9322 6.8475 -6.9322 c2.0508 0 3.8475 0.84746 5.1186 2.2373 c0.15254 0.15254 0.13559 0.32203 -0.016949 0.45763 l-1.4068 1.1356 c-0.16966 0.13559 -0.32203 0.11864 -0.45763 -0.033898 c-0.72881 -0.76271 -1.8644 -1.4575 -3.2203 -1.4575 c-2.4915 0 -4.4405 2.1524 -4.4405 4.5931 c0 2.4746 1.949 4.5254 4.4405 4.5254 c1.1017 0 2.0508 -0.45763 2.7627 -1.0339 l0 -0.9661 l-2.678 0 c-0.22034 0 -0.33898 -0.10169 -0.33898 -0.32186 l0 -1.6271 c0 -0.22034 0.084746 -0.35593 0.30508 -0.35593 l4.7797 0 c0.22034 0 0.33898 0.11881 0.33898 0.33898 z M374.62711186440674 12.78 l-6.1697 -0.00033103 l0 3.4068 l3.322 0 c0.18644 0 0.33898 0.15254 0.33898 0.33915 l0 1.6778 c0 0.20339 -0.13559 0.3222 -0.33898 0.3222 l-3.322 0 l0 3.1356 l6.1695 0 c0.18644 0 0.33881 0.15238 0.33881 0.33881 l0 1.6613 c0 0.18644 -0.15238 0.33881 -0.33881 0.33881 l-8.2542 0 c-0.18644 0 -0.33898 -0.15238 -0.33898 -0.33881 l0 -12.898 c0 -0.16949 0.13559 -0.32203 0.3222 -0.32203 l8.2712 0 c0.18644 0 0.33881 0.15254 0.33881 0.32203 l0 1.6949 c0 0.18644 -0.15238 0.32203 -0.33881 0.32203 z"/></g><g id="SvgjsG5291" rel="mainfill" name="symbol" feature="symbol" xmlns:name="symbol_mainfill" fill="#fff" transform="translate(78.71297607907691, 14.643511960461547) scale(1.782440038329711)"><g xmlns="http://www.w3.org/2000/svg"><path class="st0" d="M31.6,9.8l1,1.1c0.1-0.1,0.2-0.2,0.4-0.3c0.1,0.1,0.2,0.2,0.4,0.3l1-1.1   c-0.1-0.1-0.1-0.1-0.2-0.2c0.2-0.2,0.5-0.4,0.7-0.6L34,7.8c-0.3,0.3-0.6,0.5-1,0.8c-0.3-0.3-0.6-0.5-1-0.8L31.1,9   c0.2,0.2,0.5,0.4,0.7,0.6C31.8,9.6,31.7,9.7,31.6,9.8z" style="fill: {{COLOR}};"/><path class="st0" d="M24.5,19.5c0.6-0.8,1.3-1.5,1.9-2.3l-1.1-1c-0.7,0.7-1.3,1.5-2,2.3L24.5,19.5z" style="fill: {{COLOR}};"/><path class="st0" d="M29.4,11.8c-0.7,0.7-1.4,1.4-2.1,2.2l0.2,0.2l0.1,1.5c1-0.1,2-0.2,2.9-0.2L30.5,14   c-0.4,0-0.8,0.1-1.2,0.1c0.4-0.4,0.8-0.8,1.1-1.1L29.4,11.8z" style="fill: {{COLOR}};"/><path class="st0" d="M39.7,5.5l-0.8-1.3c-0.8,0.5-1.7,1.1-2.5,1.7l0.9,1.2C38.1,6.6,38.9,6,39.7,5.5z" style="fill: {{COLOR}};"/><path class="st0" d="M16.3,28.4l1.3,0.8c0.5-0.8,1-1.7,1.6-2.5l-1.3-0.8C17.4,26.7,16.8,27.5,16.3,28.4z" style="fill: {{COLOR}};"/><path class="st0" d="M45,2.9l-0.5-1.4c-0.9,0.3-1.9,0.8-2.8,1.3l0.7,1.3C43.2,3.7,44.1,3.3,45,2.9z" style="fill: {{COLOR}};"/><path class="st0" d="M50.5,1.8l0-1.5c-1,0-2,0.1-3.1,0.4l0.3,1.5C48.7,1.9,49.6,1.8,50.5,1.8z" style="fill: {{COLOR}};"/><path class="st0" d="M22.6,21.8l-1.2-0.9c-0.6,0.8-1.2,1.6-1.8,2.4l1.2,0.9C21.4,23.4,22,22.6,22.6,21.8z" style="fill: {{COLOR}};"/><path class="st0" d="M9.7,48.2L8.2,48C8,49,7.9,50,7.8,51l1.5,0.2C9.4,50.2,9.5,49.2,9.7,48.2z" style="fill: {{COLOR}};"/><path class="st0" d="M13.4,37l-1.4-0.6c-0.4,0.9-0.8,1.9-1.2,2.8l1.4,0.6C12.6,38.9,13,38,13.4,37z" style="fill: {{COLOR}};"/><path class="st0" d="M9.1,54l-1.5,0c0,1.1,0.1,2.2,0.3,3.1l1.5-0.3C9.3,56,9.2,55.1,9.1,54z" style="fill: {{COLOR}};"/><path class="st0" d="M42.7,14.7c-1-0.2-2-0.3-3-0.4l-0.2,1.5c1,0.1,2,0.3,2.9,0.4L42.7,14.7z" style="fill: {{COLOR}};"/><path class="st0" d="M8.2,21.9l-0.8-1.2c-0.9,0.6-1.7,1.2-2.4,1.9l1,1.1C6.6,23.1,7.4,22.5,8.2,21.9z" style="fill: {{COLOR}};"/><path class="st0" d="M54.3,18.3c-0.9-0.4-1.8-0.8-2.8-1.2L51,18.5c0.9,0.4,1.8,0.7,2.7,1.1L54.3,18.3z" style="fill: {{COLOR}};"/><path class="st0" d="M48.6,16.1c-1-0.3-1.9-0.5-2.9-0.8l-0.3,1.5c1,0.2,1.9,0.5,2.9,0.8L48.6,16.1z" style="fill: {{COLOR}};"/><path class="st0" d="M33.6,13.9l0,1.5c1,0,2,0,3,0.1l0.1-1.5C35.6,14,34.6,13.9,33.6,13.9z" style="fill: {{COLOR}};"/><path class="st0" d="M15.6,16.7l0.5,1.4c0.9-0.3,1.9-0.6,2.8-0.9l-0.4-1.4C17.6,16,16.6,16.3,15.6,16.7z" style="fill: {{COLOR}};"/><path class="st0" d="M3.9,25.8l-1.2-1c-0.7,0.8-1.3,1.7-1.8,2.6l1.3,0.7C2.8,27.3,3.3,26.5,3.9,25.8z" style="fill: {{COLOR}};"/><path class="st0" d="M21.8,16.5c0.9-0.2,1.9-0.4,2.9-0.5l-0.2-1.5c-1,0.2-2,0.3-3,0.5L21.8,16.5z" style="fill: {{COLOR}};"/><path class="st0" d="M62.7,26.7l1.2-0.9c-0.6-0.8-1.3-1.6-2-2.4l-1.1,1.1C61.6,25.2,62.2,25.9,62.7,26.7z" style="fill: {{COLOR}};"/><path class="st0" d="M43.4,21.8c0.6,0.8,1.2,1.6,1.8,2.4l1.2-0.9c-0.6-0.8-1.2-1.6-1.8-2.4L43.4,21.8z" style="fill: {{COLOR}};"/><path class="st0" d="M53.7,39.8l1.4-0.6c-0.4-0.9-0.8-1.9-1.2-2.8L52.6,37C53,38,53.4,38.9,53.7,39.8z" style="fill: {{COLOR}};"/><path class="st0" d="M46.8,26.7c0.5,0.8,1.1,1.7,1.6,2.5l1.3-0.8c-0.5-0.9-1.1-1.7-1.6-2.6L46.8,26.7z" style="fill: {{COLOR}};"/><path class="st0" d="M29.6,6c-0.9-0.6-1.7-1.2-2.5-1.7l-0.8,1.3c0.8,0.5,1.6,1,2.5,1.6L29.6,6z" style="fill: {{COLOR}};"/><path class="st0" d="M18.6,0.6c-1.1-0.2-2.2-0.4-3.1-0.4l0,1.5c0.9,0,1.8,0.1,2.8,0.3L18.6,0.6z" style="fill: {{COLOR}};"/><path class="st0" d="M57.8,48l-1.5,0.3c0.2,1,0.3,2,0.4,2.9l1.5-0.2C58.1,50,58,49,57.8,48z" style="fill: {{COLOR}};"/><path class="st0" d="M24.4,2.8c-1-0.5-1.9-0.9-2.8-1.3l-0.5,1.4c0.9,0.3,1.8,0.7,2.7,1.2L24.4,2.8z" style="fill: {{COLOR}};"/><path class="st0" d="M56.6,56.9l1.5,0.3c0.2-1,0.3-2,0.3-3.1l-1.5,0C56.8,55.1,56.7,56,56.6,56.9z" style="fill: {{COLOR}};"/><path class="st0" d="M40.8,16.2l-1.1,1c0.6,0.7,1.3,1.5,1.9,2.3l1.2-0.9C42.1,17.7,41.4,17,40.8,16.2z" style="fill: {{COLOR}};"/><path class="st0" d="M38.7,14c-0.7-0.7-1.4-1.5-2.1-2.2l-1,1.1c0.7,0.7,1.4,1.4,2.1,2.1L38.7,14z" style="fill: {{COLOR}};"/><path class="st0" d="M65.3,35.4c0.6-1.2,0.9-2.4,1.1-3.6l-0.7-0.1l0.7-0.1c-0.1-1-0.4-2.1-0.8-3.1l-1.4,0.6   c0.4,0.9,0.6,1.7,0.7,2.6c-0.1,1-0.4,1.9-0.8,2.9c-0.4-0.1-0.7-0.2-1.1-0.2c-1.8,0-3.3,1.5-3.3,3.3c0,0.7,0.2,1.4,0.6,1.9   c-1.1,1-2.4,1.9-3.9,2.8c0-0.1-0.1-0.2-0.1-0.4l-1.4,0.5c0.1,0.2,0.1,0.4,0.2,0.6c-4.1,2.2-9,3.7-14.5,4.4   c3.9-4.4,7.3-9.2,10.2-14.3c0.2,0.4,0.4,0.7,0.6,1.1l1.3-0.7c-0.3-0.7-0.7-1.3-1-2c2-3.6,3.5-7.2,4.7-10.7c0.8,0.5,1.7,1,2.4,1.6   l0.9-1.2c-0.8-0.6-1.7-1.2-2.6-1.7l-0.7,1.1c0.9-2.7,1.5-5.2,1.8-8.2c1.6-0.2,2.9-1.6,2.9-3.3c0-1.7-1.3-3.1-3-3.3   c-0.3-1.3-0.7-2.5-1.3-3.6L56,3l0.5-0.6c-0.8-0.7-1.8-1.3-2.8-1.7l-0.5,1.4c0.8,0.3,1.6,0.7,2.2,1.3c0.5,0.8,0.8,1.8,1.1,2.9   c-1.2,0.5-2.1,1.7-2.1,3.1c0,1.5,1,2.7,2.3,3.1c-1.3,12-9.9,26.1-18.5,35.2c-3.4,0.3-7.1,0.3-10.5,0c-4.3-4.7-8.6-10.4-11.9-16.4   c-2.1-3.8-3.7-7.5-4.9-11.1c0.7-0.4,1.5-0.8,2.3-1.1l-0.6-1.4c-0.8,0.3-1.5,0.7-2.2,1c-0.5-1.7-0.9-3.3-1.1-4.9   c1.3-0.5,2.2-1.7,2.2-3.1c0-1.5-1-2.8-2.4-3.2C9.5,6,9.9,4.6,10.6,3.4c0.6-0.6,1.4-1,2.2-1.3l-0.5-1.4c-1.1,0.4-2,0.9-2.8,1.7L10,3   L9.3,2.6C8.5,4,8,5.7,7.8,7.6c-1.5,0.3-2.7,1.6-2.7,3.2c0,1.7,1.3,3.1,2.9,3.3c1,6.1,3.5,12.3,6.4,17.6c-0.4,0.7-0.7,1.3-1,2   l1.3,0.7c0.2-0.4,0.4-0.7,0.6-1.1c2.9,5,6.2,9.8,10.2,14.3c-5.4-0.7-10.4-2.2-14.5-4.4c0.1-0.2,0.1-0.4,0.2-0.6l-1.4-0.5   c0,0.1-0.1,0.2-0.1,0.4c-1.5-0.9-2.8-1.9-4-2.9c1.5-2.2-0.1-5.1-2.8-5.1c-0.3,0-0.7,0.1-1,0.2c-0.4-0.9-0.7-1.9-0.8-2.8   c0-0.3,0.1-0.6,0.2-1l-1.5-0.3c-0.1,0.4-0.2,0.8-0.2,1.2l0.7,0.1l-0.7,0.1c0.2,1.2,0.5,2.4,1,3.5c-0.6,0.6-1,1.5-1,2.4   c0,1.8,1.5,3.3,3.3,3.3c0.6,0,1.2-0.2,1.7-0.5c1.3,1.2,2.9,2.3,4.6,3.3C9.1,44.3,9,44.6,8.9,45l1.4,0.4c0.1-0.2,0.1-0.5,0.2-0.8   c4.6,2.4,10.3,4,16.5,4.6c1.5,1.6,3.2,3.2,4.8,4.6c-2.4,1.9-4.7,3.6-6.9,4.8c-0.6-0.9-1.6-1.5-2.8-1.5c-1.8,0-3.3,1.5-3.3,3.3   c0,0.2,0,0.5,0.1,0.7c-2.6,0.7-6,0.9-8.4-1.2c-0.1-0.1-0.2-0.3-0.2-0.4L9,60.2c0.1,0.2,0.2,0.4,0.4,0.7l0.6-0.4L9.5,61   c2.7,2.5,6.5,2.5,10.1,1.5c0.6,0.8,1.6,1.2,2.6,1.2c1.8,0,3.3-1.5,3.3-3.3c0-0.1,0-0.2,0-0.4c2.5-1.4,5-3.1,7.6-5.3   c4.5,3.8,8.9,6.4,12.9,7.6c0,0,0,0,0,0c0,1.8,1.5,3.3,3.3,3.3c1.6,0,3-1.2,3.3-2.8c1.6-0.3,3-0.9,4.1-2L56,60.5l0.6,0.4   c0.1-0.2,0.2-0.4,0.3-0.7l-1.3-0.7c-0.1,0.2-0.2,0.3-0.2,0.4c-0.9,0.8-1.9,1.3-3.1,1.5c-0.4-1.4-1.7-2.4-3.2-2.4   c-1.3,0-2.4,0.7-2.9,1.8c-3.7-1.1-7.8-3.6-12.1-7.1c1.6-1.4,3.2-3,4.8-4.6c6.2-0.6,11.8-2.2,16.5-4.6c0.1,0.3,0.2,0.5,0.2,0.8   l1.4-0.4c-0.1-0.4-0.2-0.7-0.3-1.1c1.7-1,3.2-2.1,4.6-3.3c0.5,0.3,1,0.4,1.5,0.4c1.8,0,3.3-1.5,3.3-3.3   C66.2,36.8,65.8,36,65.3,35.4z M55.9,9.4c0-1,0.9-1.8,1.8-1.8c1,0,1.8,0.8,1.8,1.8c0,1-0.9,1.9-2,1.8C56.6,11.1,55.9,10.4,55.9,9.4   z M6.6,10.8c0-1,0.8-1.8,1.7-1.8l0.1,0c1,0,1.8,0.8,1.8,1.8c0,0.9-0.7,1.7-1.6,1.8C7.5,12.7,6.6,11.9,6.6,10.8z M1.2,37.7   c0-1,0.9-1.8,1.8-1.8c1,0,1.8,0.8,1.8,1.8c0,1-0.8,1.8-1.8,1.8C2,39.5,1.2,38.7,1.2,37.7z M22.1,62.3c-1,0-1.8-0.8-1.8-1.8   c0-1,0.8-1.8,1.8-1.8c1,0,1.8,0.8,1.8,1.8C23.9,61.5,23.1,62.3,22.1,62.3z M49.2,60.6c1,0,1.8,0.8,1.8,1.8c0.1,1-0.8,1.9-1.8,1.9   c-1,0-1.8-0.8-1.8-1.8C47.4,61.4,48.3,60.6,49.2,60.6z M33,52.9c-1.2-1.1-2.5-2.2-3.7-3.5c2.7,0.2,4.7,0.2,7.4,0   C35.5,50.6,34.2,51.8,33,52.9z M62.9,39.5c-1,0-1.8-0.8-1.8-1.8c0-1,0.8-1.8,1.8-1.8c0.9,0,1.8,0.7,1.8,1.8   C64.7,38.7,63.8,39.5,62.9,39.5z" style="fill: {{COLOR}};"/><path class="st0" d="M24.2,33c0,4.8,3.9,8.8,8.8,8.8s8.8-3.9,8.8-8.8s-3.9-8.8-8.8-8.8S24.2,28.2,24.2,33z    M40.3,33c0,4-3.3,7.3-7.3,7.3S25.7,37,25.7,33s3.3-7.3,7.3-7.3S40.3,29,40.3,33z" style="fill: {{COLOR}};"/></g></g>
			</g>
		</svg>
	