<?xml version="1.0" encoding="UTF-8" standalone="no"?>
<svg width="166px" height="29px" viewBox="0 0 166 29" version="1.1" xmlns="http://www.w3.org/2000/svg" xmlns:xlink="http://www.w3.org/1999/xlink">
    <!-- Generator: Sketch 47 (45396) - http://www.bohemiancoding.com/sketch -->
    <title>ic-logo</title>
    <desc>Created with Sketch.</desc>
    <defs></defs>
    <g id="00-Homepage" stroke="none" stroke-width="1" fill="none" fill-rule="evenodd">
        <g id="00.00.-Homepage" transform="translate(-137.000000, -14.000000)" fill-rule="nonzero" fill="#323232">
            <path d="M257.262516,14.1960898 C259.155697,13.6454983 261.376544,14.2231681 261.895348,16.3262474 C262.496069,20.0449971 257.490061,22.6896419 254.704901,20.1803885 C253.55807,17.9058134 254.704901,14.8459684 257.262516,14.1960898 Z M232.159661,16.1096212 C234.207573,16.0554647 236.255486,16.0644908 238.303398,16.1637778 C238.494537,18.4112746 238.285194,20.6587713 238.021241,22.8882159 C241.862215,21.9585285 247.514453,21.9133981 249.08907,26.3542351 C249.644282,31.76989 247.459842,37.0140492 246.959241,42.3755475 C244.829412,42.4567823 242.699583,42.420678 240.587958,42.1498952 C240.305801,37.492432 242.344612,33.0335428 241.98964,28.3941318 C240.533347,27.3019747 238.694777,27.8615924 237.038243,27.924775 C235.955125,32.7176296 235.308895,37.591719 234.325897,42.4116519 C232.20517,42.4477562 230.084443,42.4116519 227.972818,42.1498952 C228.446113,33.3584821 230.949117,24.8107734 232.159661,16.1096212 Z M144.863983,23.0597117 C148.395495,21.8411893 152.281977,22.3376244 155.595044,23.9713469 C158.908111,22.4549636 162.912918,21.5974849 166.335207,23.2492596 C168.43773,24.2421297 169.539052,26.6791744 169.102164,28.908619 C168.455934,33.4216647 167.509343,37.88958 166.781197,42.3845736 C164.642266,42.5019128 162.494233,42.4567823 160.373506,42.1137908 C160.236979,37.4202233 162.075549,32.9432819 161.966327,28.2677665 C160.710274,27.4554182 159.153861,27.4734704 157.870502,28.2136099 C156.432413,32.8349688 156.113849,37.7000321 155.067138,42.4116519 C152.928207,42.4477562 150.789277,42.4297041 148.677651,42.1047648 C148.550226,37.4021711 150.516222,32.8981514 150.197657,28.1955578 C148.750466,27.2929486 145.846981,27.3380791 145.746861,29.4953149 C144.918594,33.8007606 144.263263,38.1423106 143.371283,42.4387301 C141.241454,42.5109389 139.102523,42.4387301 137,42.1137908 C137.136527,37.2035971 138.365275,32.4107425 139.211745,27.5908096 C139.639531,24.8920083 142.579423,23.8088773 144.863983,23.0597117 Z M172.979545,28.4934188 C172.478944,26.1556611 173.370924,23.4749119 176.028659,23.0687378 C180.55227,22.0126851 187.287626,21.3808587 189.827037,26.2098176 C190.491471,30.190324 188.980567,34.134726 188.379846,38.0430236 C188.097689,40.940399 184.884742,42.0145038 182.445451,42.5650954 C178.91394,43.0976348 174.900031,43.4316002 171.732594,41.4548862 C168.63797,39.4601199 169.448034,34.5679784 172.023852,32.4739251 C175.346021,29.8834369 179.842327,30.488185 183.756115,29.7119411 C181.708202,25.5779912 176.401834,28.0511403 172.979545,28.4934188 Z M177.421239,34.9019437 C177.093573,35.3713005 176.429139,36.3190401 176.101473,36.7883969 C177.685192,38.1423106 179.796817,37.88958 181.735508,37.9166583 C181.908443,36.6710577 182.072276,35.425457 182.227007,34.1798564 C180.625084,34.4145348 179.023162,34.6582393 177.421239,34.9019437 Z M199.083601,23.3485466 C202.105409,22.2744417 205.873568,21.6696936 208.71334,23.5110163 C210.706641,24.666356 209.204839,26.8596962 208.849867,28.4934188 C206.710937,28.1865317 204.453682,27.1756094 202.332955,28.0691925 C199.083601,29.0530364 197.099401,33.6743953 199.365758,36.3912488 C201.586605,38.4943282 204.735839,37.1494405 207.348065,36.8154751 C207.411778,38.2054932 207.429982,39.5864852 207.411778,40.9765033 C202.70613,44.1446614 194.887656,43.6662786 192.066088,38.2686759 C189.845241,32.5010034 193.26753,25.4425998 199.083601,23.3485466 Z M216.904989,23.4478336 C220.008714,22.2202852 223.913401,21.6696936 226.871496,23.5380945 C228.609946,24.8378517 227.663356,26.8055397 226.798682,28.321923 C224.468612,28.1955578 221.965608,27.0943746 219.772067,28.3399752 C216.886786,29.6397324 215.212048,34.0264129 217.533016,36.4995619 C219.799372,38.4853021 222.884893,37.1043101 225.478916,36.8154751 C225.55173,38.5575108 225.952211,40.7598771 224.068132,41.734695 C219.580928,44.1085571 212.709044,43.1247131 210.178735,38.376989 C207.684833,32.7627601 211.280057,25.6231217 216.904989,23.4478336 Z M253.685495,23.0236073 C255.769815,23.3304944 258.846234,22.0758677 260.047676,24.3414167 C259.437854,30.4159763 257.999764,36.3912488 256.998562,42.4116519 C254.886937,42.4387301 252.784414,42.4026258 250.690992,42.1859996 C250.836622,35.7052659 252.556868,29.3779757 253.685495,23.0236073 Z M263.087689,26.146635 C266.965069,22.6174332 272.708326,21.5794327 277.714334,22.897242 C280.08081,23.4658858 282.192435,25.5870173 282.001297,28.123349 C281.582613,32.9252297 280.417578,37.6368495 279.653024,42.3935997 C277.477686,42.4748345 275.293246,42.420678 273.136112,42.0867126 C273.263537,37.2848319 274.947377,32.6815252 274.883664,27.8615924 C273.090603,27.7171749 271.306643,27.8345141 269.559092,28.1955578 C268.885556,32.952308 267.857049,37.6458756 267.092495,42.3845736 C264.971768,42.4387301 262.851041,42.4116519 260.748518,42.1589213 C260.675703,36.7252142 262.368644,31.4991072 263.087689,26.146635 Z M285.44179,26.0112436 C287.771859,21.9765807 293.023616,22.202233 297.083034,22.5361984 C299.959213,22.8069811 303.281382,24.8468778 302.981021,28.0962707 C302.644253,32.1489858 301.688561,36.1204661 300.878498,40.0919464 C296.500516,43.1608175 290.55702,43.8197221 285.569215,41.9783995 C281.336863,40.3266247 282.110519,34.1256999 285.551012,32.0316466 C289.037014,29.9105151 293.38769,30.5694198 297.155848,29.2335583 C294.215956,26.3632612 289.992706,27.5456792 286.506704,28.4573144 C286.242751,27.8525663 285.705743,26.6250178 285.44179,26.0112436 Z M289.182643,36.210727 C289.728753,38.7109544 292.614034,37.6549016 294.452604,37.9798409 C294.816677,36.8245012 295.189852,35.6781876 295.544824,34.5228479 C293.34218,34.6401871 290.65714,34.1437521 289.182643,36.210727 Z" id="ic-logo"></path>
        </g>
    </g>
</svg>