<?xml version="1.0" standalone="no"?>
<!DOCTYPE svg PUBLIC "-//W3C//DTD SVG 20010904//EN"
 "http://www.w3.org/TR/2001/REC-SVG-20010904/DTD/svg10.dtd">
<svg version="1.0" xmlns="http://www.w3.org/2000/svg"
 width="500.000000pt" height="500.000000pt" viewBox="0 0 500.000000 500.000000"
 preserveAspectRatio="xMidYMid meet">
<metadata>
Created by potrace 1.11, written by Peter Selinger 2001-2013
</metadata>
<g transform="translate(0.000000,500.000000) scale(0.100000,-0.100000)"
fill="#000000" stroke="none">
<path d="M2304 4975 c-105 -27 -191 -67 -280 -130 -76 -54 -88 -70 -48 -61 40
9 190 10 244 2 84 -13 179 -42 265 -81 40 -19 603 -335 665 -374 8 -6 125 -71
260 -147 284 -158 594 -360 678 -442 118 -116 183 -241 221 -429 32 -156 35
-237 35 -1028 0 -798 -2 -823 -50 -971 -49 -152 -127 -284 -232 -396 -69 -73
-67 -75 50 -28 256 104 482 353 566 625 51 165 51 169 48 945 -1 399 -5 739
-9 755 -3 17 -8 48 -11 70 -32 229 -107 432 -220 585 -134 184 -291 301 -691
520 -33 18 -202 114 -375 213 -173 99 -330 188 -348 199 -18 10 -66 37 -105
59 -84 48 -160 81 -238 103 -90 27 -98 28 -219 31 -95 3 -131 -1 -206 -20z"/>
<path d="M1705 4580 c-124 -18 -251 -72 -362 -154 -35 -25 -63 -47 -63 -48 0
-2 66 -3 148 -4 130 -1 157 -4 236 -28 119 -36 174 -64 636 -328 217 -124 422
-240 455 -258 240 -131 541 -326 639 -412 106 -94 187 -230 226 -383 22 -83
26 -104 40 -220 4 -38 8 -425 8 -860 l0 -790 -23 -100 c-43 -186 -133 -358
-259 -493 -68 -72 -66 -73 62 -20 297 122 527 418 592 763 23 116 18 1538 -4
1606 -3 8 -7 32 -10 54 -12 101 -64 280 -104 365 -75 157 -160 265 -312 400
-75 67 -264 186 -480 302 -36 20 -108 60 -160 90 -627 361 -796 453 -885 481
-112 37 -272 52 -380 37z"/>
<path d="M1098 4175 c-2 -2 -28 -5 -58 -8 -67 -7 -178 -41 -245 -75 -267 -134
-453 -410 -509 -757 -13 -75 -15 -214 -12 -825 1 -404 6 -751 10 -770 3 -19
11 -66 17 -105 49 -315 187 -565 419 -757 65 -54 235 -168 250 -168 5 0 10 -4
10 -10 0 -5 4 -10 9 -10 5 0 55 -26 113 -58 57 -32 110 -61 118 -65 8 -4 22
-11 30 -17 82 -55 823 -467 880 -489 114 -44 223 -62 354 -56 288 11 546 167
731 439 50 74 125 252 139 332 3 16 10 52 16 79 10 54 8 1500 -3 1545 -3 14
-11 60 -17 103 -46 314 -190 572 -425 763 -53 43 -178 129 -234 160 -18 10
-41 24 -50 29 -9 6 -52 30 -96 54 -44 25 -188 106 -320 181 -686 391 -707 403
-810 438 -58 21 -83 26 -155 37 -40 7 -158 13 -162 10z m-40 -402 c-66 -128
-92 -209 -106 -328 -9 -81 -8 -1370 1 -1430 4 -22 9 -58 11 -80 22 -184 101
-364 208 -476 97 -102 168 -150 429 -297 212 -119 227 -127 374 -212 55 -31
120 -68 145 -82 25 -14 125 -71 223 -127 97 -56 203 -111 235 -123 61 -21 196
-31 244 -17 15 4 28 4 28 0 0 -4 -26 -33 -58 -64 -76 -72 -171 -124 -259 -141
-147 -28 -227 -5 -474 136 -107 61 -223 126 -259 146 -36 19 -72 41 -81 48 -8
8 -18 14 -21 14 -2 0 -76 41 -164 91 -87 50 -184 104 -214 120 -63 33 -89 48
-180 104 -320 194 -437 383 -476 770 -10 96 -11 1312 -1 1405 26 258 154 460
336 531 51 20 65 23 59 12z m430 -108 c67 -37 124 -71 127 -75 3 -4 5 -254 6
-556 1 -648 7 -724 72 -909 78 -221 223 -358 587 -553 36 -19 91 -50 123 -68
32 -19 62 -34 68 -34 5 0 9 -4 9 -10 0 -5 5 -10 10 -10 6 0 65 -32 131 -70 66
-39 121 -70 123 -70 1 0 59 -33 127 -73 l125 -72 -2 -121 c-1 -67 -7 -144 -14
-172 l-12 -51 -36 15 c-20 8 -99 51 -176 95 -78 45 -161 93 -186 107 -25 14
-160 90 -300 170 -140 79 -307 174 -370 209 -270 153 -398 274 -475 447 -28
62 -70 219 -81 301 -4 28 -8 374 -9 770 -3 667 2 813 23 802 4 -2 62 -34 130
-72z m921 -522 c223 -126 332 -211 414 -322 65 -88 124 -234 143 -356 3 -22 7
-42 9 -45 11 -18 18 -209 19 -492 1 -181 1 -328 -1 -328 -7 0 -62 27 -83 41
-14 9 -108 62 -210 119 -408 225 -534 340 -616 556 -29 79 -60 216 -70 319 -7
71 -13 714 -7 727 3 6 75 -33 402 -219z"/>
</g>
</svg>
